<svg width="50" height="26" viewBox="0 0 2064 2270" fill="none" xmlns="http://www.w3.org/2000/svg">
<path d="M2052.5 1135C2052.5 1756.55 1594.6 2258.5 1032 2258.5C469.398 2258.5 11.5 1756.55 11.5 1135C11.5 513.454 469.398 11.5 1032 11.5C1594.6 11.5 2052.5 513.454 2052.5 1135Z" stroke="white" stroke-width="23"/>
<path d="M1446.48 1245.81L1495.95 923.493H1186.64V714.33C1186.64 626.15 1229.85 540.196 1368.38 540.196H1509V265.776C1509 265.776 1381.39 244 1259.38 244C1004.66 244 838.152 398.377 838.152 677.84V923.493H555V1245.81H838.152V2025H1186.64V1245.81H1446.48Z" fill="white"/>
</svg>
