<svg width="50" height="26" viewBox="0 0 792 792" fill="none" xmlns="http://www.w3.org/2000/svg">
<circle cx="396" cy="396" r="373.5" stroke="#FFFEFE" stroke-width="45"/>
<path d="M395.175 281.175C331.575 281.175 280.275 332.475 280.275 396.075C280.275 459.675 331.575 510.975 395.175 510.975C458.775 510.975 510.075 459.675 510.075 396.075C510.075 332.475 458.775 281.175 395.175 281.175ZM395.175 470.775C354.075 470.775 320.475 437.275 320.475 396.075C320.475 354.875 353.975 321.375 395.175 321.375C436.375 321.375 469.875 354.875 469.875 396.075C469.875 437.275 436.275 470.775 395.175 470.775V470.775ZM541.575 276.475C541.575 291.375 529.575 303.275 514.775 303.275C499.875 303.275 487.975 291.275 487.975 276.475C487.975 261.675 499.975 249.675 514.775 249.675C529.575 249.675 541.575 261.675 541.575 276.475ZM617.675 303.675C615.975 267.775 607.775 235.975 581.475 209.775C555.275 183.575 523.475 175.375 487.575 173.575C450.575 171.475 339.675 171.475 302.675 173.575C266.875 175.275 235.075 183.475 208.775 209.675C182.475 235.875 174.375 267.675 172.575 303.575C170.475 340.575 170.475 451.475 172.575 488.475C174.275 524.375 182.475 556.175 208.775 582.375C235.075 608.575 266.775 616.775 302.675 618.575C339.675 620.675 450.575 620.675 487.575 618.575C523.475 616.875 555.275 608.675 581.475 582.375C607.675 556.175 615.875 524.375 617.675 488.475C619.775 451.475 619.775 340.675 617.675 303.675V303.675ZM569.875 528.175C562.075 547.775 546.975 562.875 527.275 570.775C497.775 582.475 427.775 579.775 395.175 579.775C362.575 579.775 292.475 582.375 263.075 570.775C243.475 562.975 228.375 547.875 220.475 528.175C208.775 498.675 211.475 428.675 211.475 396.075C211.475 363.475 208.875 293.375 220.475 263.975C228.275 244.375 243.375 229.275 263.075 221.375C292.575 209.675 362.575 212.375 395.175 212.375C427.775 212.375 497.875 209.775 527.275 221.375C546.875 229.175 561.975 244.275 569.875 263.975C581.575 293.475 578.875 363.475 578.875 396.075C578.875 428.675 581.575 498.775 569.875 528.175Z" fill="#FF52BF"/>
</svg>
