<svg width="50" height="26" viewBox="0 0 2716 2681" fill="none" xmlns="http://www.w3.org/2000/svg">
<path d="M2687 1340.5C2687 2064.47 2092.34 2652 1358 2652C623.658 2652 29 2064.47 29 1340.5C29 616.532 623.658 29 1358 29C2092.34 29 2687 616.532 2687 1340.5Z" stroke="white" stroke-width="58"/>
<path d="M2041.99 1027.55C2043.08 1042.85 2043.08 1058.15 2043.08 1073.44C2043.08 1540 1687.98 2077.58 1038.95 2077.58C838.995 2077.58 653.248 2019.66 497 1919.15C525.41 1922.42 552.723 1923.52 582.226 1923.52C747.211 1923.52 899.09 1867.79 1020.37 1772.73C865.219 1769.45 735.194 1667.84 690.395 1527.98C712.25 1531.26 734.101 1533.44 757.049 1533.44C788.734 1533.44 820.423 1529.07 849.923 1521.42C688.213 1488.64 566.926 1346.6 566.926 1175.06V1170.69C613.908 1196.91 668.544 1213.3 726.45 1215.48C631.39 1152.11 569.112 1043.94 569.112 921.563C569.112 856.006 586.591 795.911 617.187 743.464C790.917 957.621 1052.06 1097.48 1344.88 1112.78C1339.42 1086.55 1336.14 1059.24 1336.14 1031.92C1336.14 837.431 1493.48 679 1689.06 679C1790.68 679 1882.46 721.613 1946.93 790.449C2026.69 775.153 2103.17 745.65 2170.92 705.224C2144.69 787.173 2088.97 856.009 2015.76 899.712C2086.79 892.067 2155.62 872.395 2218.99 845.082C2170.93 915.008 2110.83 977.286 2041.99 1027.55Z" fill="#FF52BF"/>
</svg>
